<?xml version="1.0" standalone="no"?><!DOCTYPE svg PUBLIC "-//W3C//DTD SVG 1.1//EN" "http://www.w3.org/Graphics/SVG/1.1/DTD/svg11.dtd"><svg class="icon" width="128px" height="128.00px" viewBox="0 0 1024 1024" version="1.1" xmlns="http://www.w3.org/2000/svg"><path d="M796.539259 638.008889H263.111111c-37.546667 0-70.542222-25.6-82.10963-63.81037L61.060741 177.967407c-8.912593-29.487407-3.508148-61.534815 14.506666-85.712592C91.97037 70.068148 116.622222 57.362963 143.17037 57.362963h709.594074c15.739259 0 28.444444 12.705185 28.444445 28.444444s-12.705185 28.444444-28.444445 28.444445H143.17037c-11.377778 0-18.678519 7.395556-21.902222 11.851852-7.300741 9.860741-9.481481 23.04-5.783704 35.365926l119.845926 396.231111c4.266667 14.032593 15.36 23.419259 27.685926 23.419259h533.522963c12.894815 0 24.557037-10.42963 28.254815-25.41037l85.617778-347.401482c3.792593-15.265185 19.152593-24.557037 34.417778-20.764444 15.265185 3.792593 24.557037 19.152593 20.764444 34.417777l-85.617778 347.401482c-9.955556 40.391111-44.278519 68.645926-83.437037 68.645926z" fill="#8a8a8a" /><path d="M938.002963 243.579259H255.905185c-15.739259 0-28.444444-12.705185-28.444444-28.444444s12.705185-28.444444 28.444444-28.444445h682.097778c15.739259 0 28.444444 12.705185 28.444444 28.444445s-12.705185 28.444444-28.444444 28.444444zM627.958519 437.096296H395.377778c-15.739259 0-28.444444-12.705185-28.444445-28.444444s12.705185-28.444444 28.444445-28.444445h232.580741c15.739259 0 28.444444 12.705185 28.444444 28.444445s-12.705185 28.444444-28.444444 28.444444z" fill="#8a8a8a" /><path d="M511.715556 553.339259c-15.739259 0-28.444444-12.705185-28.444445-28.444444V292.408889c0-15.739259 12.705185-28.444444 28.444445-28.444445s28.444444 12.705185 28.444444 28.444445v232.580741c0 15.644444-12.705185 28.34963-28.444444 28.349629zM341.807407 750.743704c-46.743704 0-84.859259-38.020741-84.859259-84.85926 0-46.743704 38.020741-84.859259 84.859259-84.859259S426.666667 619.140741 426.666667 665.884444c0 46.838519-38.115556 84.859259-84.85926 84.85926z m0-112.734815c-15.454815 0-27.97037 12.515556-27.97037 27.97037s12.515556 27.97037 27.97037 27.970371 27.97037-12.515556 27.970371-27.970371-12.61037-27.97037-27.970371-27.97037zM693.57037 750.743704c-46.743704 0-84.859259-38.020741-84.859259-84.85926 0-46.743704 38.020741-84.859259 84.859259-84.859259S778.42963 619.140741 778.42963 665.884444c0 46.838519-38.020741 84.859259-84.85926 84.85926z m0-112.734815c-15.454815 0-27.97037 12.515556-27.97037 27.97037s12.515556 27.97037 27.97037 27.970371 27.97037-12.515556 27.970371-27.970371-12.515556-27.97037-27.970371-27.97037z" fill="#8a8a8a" /><path d="M853.522963 929.09037h-0.18963l-457.955555-0.379259c-15.739259 0-28.444444-12.8-28.444445-28.444444 0-15.739259 12.705185-28.444444 28.444445-28.444445l457.955555 0.284445c10.42963 0 18.962963-8.438519 19.057778-18.868148v-0.094815l0.284445-37.641482c0-5.025185-1.991111-9.860741-5.49926-13.463703-3.602963-3.602963-8.343704-5.594074-13.463703-5.594075H170.666667c-15.739259 0-28.444444-12.705185-28.444445-28.444444s12.705185-28.444444 28.444445-28.444444h683.045926c20.29037 0 39.348148 7.964444 53.76 22.281481 14.317037 14.411852 22.186667 33.46963 22.091851 53.854815v0.094815l-0.284444 37.736296c-0.18963 41.718519-34.133333 75.567407-75.757037 75.567407z m47.597037-113.493333z" fill="#8a8a8a" /></svg>