<?xml version="1.0" standalone="no"?><!DOCTYPE svg PUBLIC "-//W3C//DTD SVG 1.1//EN" "http://www.w3.org/Graphics/SVG/1.1/DTD/svg11.dtd"><svg class="icon" width="128px" height="128.00px" viewBox="0 0 1024 1024" version="1.1" xmlns="http://www.w3.org/2000/svg"><path d="M928.765497 370.338606 787.583011 512.726547c9.641591 12.156878 19.310811 24.90318 29.015847 38.273698l145.217383-137.062656C950.860724 398.839731 939.8346 384.319016 928.765497 370.338606L928.765497 370.338606zM62.181713 453.54568l163.353438 107.294678-0.166799 0.314155c0.180102-0.344854 10.758018-20.779256 30.080086-49.371454L90.93457 403.729088C73.878103 430.79349 64.123948 449.700095 62.181713 453.54568L62.181713 453.54568zM523.373537 261.160022c0.953721 0 1.904373-0.022513 2.863211-0.076748 37.46017-1.991354 74.4312-44.400233 108.243283-123.469056-51.624774-17.805528-103.677291-24.289196-155.556868-19.277042-28.78765 2.778276-57.385988 9.098215-85.635379 18.896372C421.155481 188.468442 472.011752 261.160022 523.373537 261.160022L523.373537 261.160022zM898.931005 334.199525c-59.528791-69.133543-120.460536-122.181737-181.872211-158.210301-13.736862-8.054443-27.519774-15.274892-41.34771-21.695115-18.228153 43.499723-37.70781 78.06803-58.18826 103.141078-27.476795 33.635051-57.528228 51.5337-89.328491 53.197596-1.660826 0.090051-3.321652 0.134053-4.983501 0.134053-44.339858 0-88.903819-31.016411-132.538619-92.278683-16.688077-23.435759-30.009478-46.87868-39.024805-64.157205-18.23634 8.655124-36.281321 18.776645-54.090942 30.372751-44.520983 28.979008-87.600127 67.118654-128.034025 113.350604-20.018939 22.88522-37.357839 45.407166-51.944046 65.928548l166.122505 109.110023c2.033309-2.574638 4.126994-5.178953 6.256494-7.783267l0 441.9946 453.156824 0L743.114217 460.766129c4.819772 5.179976 9.640568 10.491958 14.47262 15.992229L898.931005 334.199525 898.931005 334.199525zM898.931005 334.199525" fill="#1296db" /></svg>