<?xml version="1.0" standalone="no"?><!DOCTYPE svg PUBLIC "-//W3C//DTD SVG 1.1//EN" "http://www.w3.org/Graphics/SVG/1.1/DTD/svg11.dtd"><svg class="icon" width="128px" height="128.00px" viewBox="0 0 1024 1024" version="1.1" xmlns="http://www.w3.org/2000/svg"><path d="M861.4 98.2H625.8c-10 0-18.7 7.1-20.7 16.9l-41.9 206.1h-63.1c-1.6-98.8-82.4-178.7-181.6-178.7-100.1 0-181.6 81.5-181.6 181.6 0 55.5 25.1 105.3 64.4 138.6 0.4 0.4 0.8 0.8 1.2 1.1 0.4 0.4 0.9 0.7 1.3 1 30.7 25.1 69.7 40.3 112.2 40.8L353.3 892c0.6 20.5 17.5 37 38.2 37h323.8c20.7 0 37.6-16.5 38.2-37l51.4-530.6 0.1-2c0-21.1-17.2-38.3-38.3-38.3H606.3L643 140.4h218.4c11.7 0 21.1-9.5 21.1-21.1s-9.4-21.1-21.1-21.1zM524.1 513.1c-15.1 7.3-29.9 13.7-45.5 17.4-72.7 17-119-40.9-121-43.5-0.4-0.5-0.7-0.9-1.1-1.3l-11.8-122.2h209.9l-30.5 149.6zM352 321.2l104-56.7c7.6 17.5 12 36.6 12.4 56.7H352z m88.4-84.3L348.5 287 374 184.9c26.8 10.7 49.8 28.9 66.4 52z m-96.8-60.6l-30.8 123.2-76.1-101c23.5-15.4 51.6-24.3 81.8-24.3 8.5 0 16.9 0.7 25.1 2.1z m-131.5 42.3l64.2 85.3-106.2-1.3c4.7-32.6 19.9-61.8 42-84z m-43.2 115.6l120.3 1.5-77.9 93.1c-24.3-24.8-40-57.9-42.4-94.6zM235.6 449l67.3-80.4L313 474c-28.5-1-55.1-10.1-77.4-25z m476.2 437.9H395.3l-32.8-339.4c21.7 14.7 51.9 28.4 89.2 28.4 11.5 0 23.7-1.3 36.5-4.3 8.9-2.1 17.3-4.8 25.6-7.9l-31.7 155.7c-2.3 11.4 5.1 22.6 16.5 24.9 1.4 0.3 2.8 0.4 4.2 0.4 9.8 0 18.6-6.9 20.7-16.9l37.9-186.2c53.3-27.1 100-50.1 183 7.9l-32.6 337.4z m50.7-523.5L749 502.2c-75.9-45.5-130.2-33.5-177-12.6l25.7-126.1h164.8z" fill="#1296db" /></svg>