<?xml version="1.0" standalone="no"?><!DOCTYPE svg PUBLIC "-//W3C//DTD SVG 1.1//EN" "http://www.w3.org/Graphics/SVG/1.1/DTD/svg11.dtd"><svg class="icon" width="128px" height="128.00px" viewBox="0 0 1024 1024" version="1.1" xmlns="http://www.w3.org/2000/svg"><path d="M428.8 952H88.8c-8.8 0-16-7.2-16-16V775.2c0-8.8 7.2-16 16-16h310.4c25.6 0 45.6 20.8 45.6 45.6V936c0 8.8-7.2 16-16 16z m-324-32h308.8v-115.2c0-8-6.4-13.6-13.6-13.6H104.8V920z" fill="#1296db" /><path d="M88.8 791.2h-4c-7.2-2.4-11.2-7.2-12.8-13.6V776c-8.8-36.8-16.8-80-22.4-109.6C28.8 558.4 12 521.6 6.4 510.4c-3.2-4.8-2.4-11.2 0-16 3.2-4.8 8-8 13.6-8 76.8 0 141.6 40.8 155.2 96.8 4 16.8 8 36 12 56L192 664c8.8 44.8 15.2 77.6 18.4 109.6 0.8 4.8-0.8 8.8-4 12-3.2 3.2-7.2 5.6-12 5.6H88.8z m12-32H176c-3.2-25.6-8.8-53.6-16-88.8l-4.8-24.8c-4-20-8-38.4-11.2-54.4-8-35.2-48.8-63.2-98.4-70.4 9.6 24.8 21.6 68 35.2 140 4.8 26.4 12 64 20 98.4zM935.2 952H595.2c-8.8 0-16-7.2-16-16v-131.2c0-25.6 20.8-45.6 45.6-45.6h310.4c8.8 0 16 7.2 16 16V936c0 8.8-7.2 16-16 16z m-324-32H920V791.2H624.8c-8 0-13.6 6.4-13.6 13.6V920z" fill="#1296db" /><path d="M935.2 791.2H829.6c-4.8 0-8.8-1.6-12-5.6-3.2-3.2-4.8-8-4-12 3.2-32 9.6-64.8 18.4-109.6l4.8-24.8c4-20 8-39.2 12-56 12.8-56 78.4-96.8 155.2-96.8 5.6 0 11.2 3.2 13.6 8 3.2 4.8 3.2 11.2 0 16-6.4 11.2-22.4 48-43.2 156-5.6 29.6-14.4 72.8-22.4 109.6v1.6c-1.6 6.4-5.6 11.2-12 12.8h-0.8c-1.6 0.8-2.4 0.8-4 0.8z m-87.2-32h75.2c7.2-33.6 15.2-72 20-98.4 13.6-72.8 26.4-115.2 35.2-140-49.6 7.2-90.4 35.2-98.4 70.4-4 16.8-8 35.2-11.2 54.4l-4.8 24.8c-7.2 35.2-12.8 63.2-16 88.8zM512 972.8c-8.8 0-16-7.2-16-16v-728c0-8.8 7.2-16 16-16s16 7.2 16 16v728c0 8.8-7.2 16-16 16z" fill="#1296db" /><path d="M757.6 612.8H266.4c-8.8 0-16-7.2-16-16s7.2-16 16-16h491.2c8.8 0 16 7.2 16 16s-7.2 16-16 16zM243.2 244c-7.2 0-13.6-4.8-15.2-12-1.6-7.2 0.8-14.4 7.2-17.6L504 53.6c4.8-3.2 11.2-3.2 16.8 0l268.8 160.8c6.4 4 8.8 11.2 7.2 17.6-1.6 7.2-8 12-15.2 12H243.2zM512 86.4L301.6 212h421.6L512 86.4z" fill="#1296db" /></svg>