<?xml version="1.0" standalone="no"?><!DOCTYPE svg PUBLIC "-//W3C//DTD SVG 1.1//EN" "http://www.w3.org/Graphics/SVG/1.1/DTD/svg11.dtd"><svg class="icon" width="128px" height="72.02px" viewBox="0 0 1820 1024" version="1.1" xmlns="http://www.w3.org/2000/svg"><path d="M1705.073778 684.657778h-1592.888889a56.888889 56.888889 0 0 0 0 113.777778h1592.888889a56.888889 56.888889 0 0 0 0-113.777778zM811.52 440.433778a56.832 56.832 0 0 0 80.440889 0l173.112889-173.112889a56.832 56.832 0 1 0-80.440889-80.440889l-173.112889 173.112889a56.888889 56.888889 0 0 0 0 80.440889zM1039.075556 473.770667a56.832 56.832 0 1 0 80.440888 80.440889l116.224-116.224a56.832 56.832 0 1 0-80.440888-80.440889l-116.224 116.224z" fill="#1296db" /><path d="M1592.888889 457.102222V455.111111h-257.536L896.910222 16.668444A57.457778 57.457778 0 0 0 856.632889 0h-124.416c-26.965333 0-50.346667 20.081778-55.751111 46.535111-21.048889 103.480889-113.208889 182.670222-222.947556 182.499556-109.681778 0.170667-201.841778-79.246222-222.947555-182.784A57.628444 57.628444 0 0 0 174.876444 0H55.296C40.334222 0 26.453333 7.054222 15.872 17.635556S0 43.918222 0 58.88v853.333333C0 975.075556 49.322667 1024 112.184889 1024h1592.888889C1767.992889 1024 1820.444444 975.075556 1820.444444 912.213333v-227.555555c0-125.610667-113.777778-227.441778-227.555555-227.555556zM1706.666667 910.222222H113.777778V113.777778h16.156444a342.471111 342.471111 0 0 0 322.56 229.546666A346.965333 346.965333 0 0 0 778.069333 113.777778h55.011556l438.442667 438.442666c10.581333 10.581333 25.258667 16.668444 40.220444 16.668445H1592.888889v1.991111c56.888889 0.113778 113.777778 51.2 113.777778 113.777778V910.222222z" fill="#1296db" /></svg>