<?xml version="1.0" standalone="no"?><!DOCTYPE svg PUBLIC "-//W3C//DTD SVG 1.1//EN" "http://www.w3.org/Graphics/SVG/1.1/DTD/svg11.dtd"><svg class="icon" width="128px" height="128.00px" viewBox="0 0 1024 1024" version="1.1" xmlns="http://www.w3.org/2000/svg"><path d="M513.2 262.2c-138.1 0-250 111.9-250 250s111.9 250 250 250 250-111.9 250-250-111.9-250-250-250z m138.4 388.4c-37 37-86.1 57.3-138.4 57.3s-101.4-20.4-138.4-57.3-57.3-86.1-57.3-138.4 20.4-101.4 57.3-138.4c37-37 86.1-57.3 138.4-57.3 52.3 0 101.4 20.4 138.4 57.3s57.3 86.1 57.3 138.4c0 52.3-20.3 101.5-57.3 138.4z"  /><path d="M512 128h-1.2C191.5 128 0 512 0 512s192 384 512 384 512-384 512-384-192-383-512-384z m331.8 535.5c-46.9 51.2-96.2 91.7-146.5 120.4-29 16.6-58.7 29.4-88.2 38-31.9 9.3-64.6 14.1-97 14.1-32.2 0-64.6-4.7-96.3-13.9-29.3-8.5-58.8-21.1-87.6-37.5-50.1-28.4-99.2-68.5-145.9-119.1-55-59.5-93.8-120-113.6-153.6 19.7-33.6 58.5-94.1 113.3-153.6 46.6-50.6 95.6-90.7 145.5-119.1 28.7-16.3 58.1-28.9 87.4-37.5 31.6-9.2 63.9-13.9 96-13.9h1.1c32.2 0.1 64.7 4.9 96.4 14.1 29.3 8.6 58.8 21.2 87.7 37.6 50.1 28.5 99.2 68.5 146 119.1C897 418 935.9 478.3 955.6 511.9 936 545.2 898 604.3 843.8 663.5z"  /></svg>