<?xml version="1.0" standalone="no"?><!DOCTYPE svg PUBLIC "-//W3C//DTD SVG 1.1//EN" "http://www.w3.org/Graphics/SVG/1.1/DTD/svg11.dtd"><svg class="icon" width="128px" height="128.00px" viewBox="0 0 1024 1024" version="1.1" xmlns="http://www.w3.org/2000/svg"><path d="M251.074 913.697c-5.028 0-10.559-1.508-14.58-4.525-8.043-5.531-11.562-15.584-10.054-25.139l52.789-271.484-202.106-188.53c-7.041-6.537-9.552-16.59-6.537-26.142s11.061-16.090 20.613-17.093l274.501-33.684 116.637-250.369c4.022-8.548 13.072-14.58 22.624-14.58s18.602 5.531 22.624 14.58l116.637 250.369 274.501 33.684c9.552 1.007 17.597 8.043 20.613 17.093s0.502 19.104-6.537 26.142l-202.106 188.53 16.090 82.451c2.513 13.573-6.032 26.645-19.607 29.161-13.573 2.513-26.645-6.032-29.161-19.607l-18.602-96.025c-1.508-8.548 1.007-17.093 7.54-23.126l172.946-161.383-234.784-28.657c-8.548-1.007-16.090-6.537-19.607-14.077l-100.046-214.672-100.55 214.672c-3.518 8.043-11.061 13.072-19.607 14.077l-234.784 28.657 172.946 161.383c6.537 6.032 9.050 14.58 7.54 23.126l-45.248 232.271 207.132-114.626c7.54-4.022 16.59-4.022 24.132 0l73.402 40.722c12.066 6.537 16.59 21.617 9.552 33.684-6.537 12.066-21.617 16.59-33.684 9.552l-61.335-34.188-241.821 134.235c-3.518 2.513-7.54 3.518-12.066 3.518z" fill="#1296db" /><path d="M771.419 938.331c-13.072 0-27.651-6.537-44.24-22.624l-66.864-56.308c-10.559-9.050-12.066-24.634-3.018-35.191s24.634-12.066 35.191-3.018l67.871 56.812c0.502 0.502 1.007 1.007 1.508 1.007 5.531 5.531 8.548 7.54 10.559 8.548 5.531-3.018 17.093-14.58 25.639-23.126l122.669-114.125c10.054-9.552 25.639-9.050 35.191 1.508 9.552 10.054 9.050 25.639-1.508 35.191l-122.669 114.125c-20.11 19.104-38.713 37.204-60.331 37.204z" fill="#1296db" /></svg>