<?xml version="1.0" standalone="no"?><!DOCTYPE svg PUBLIC "-//W3C//DTD SVG 1.1//EN" "http://www.w3.org/Graphics/SVG/1.1/DTD/svg11.dtd"><svg t="1604972900898" class="icon" viewBox="0 0 1024 1024" version="1.1" xmlns="http://www.w3.org/2000/svg" p-id="2452" xmlns:xlink="http://www.w3.org/1999/xlink" width="200" height="200"><defs><style type="text/css"></style></defs><path d="M759.47 897.71H292a74.25 74.25 0 0 1-74.17-74.17V240.07A74.25 74.25 0 0 1 292 165.9h467.47a74.25 74.25 0 0 1 74.17 74.17v583.47a74.25 74.25 0 0 1-74.17 74.17zM292 194.24a45.88 45.88 0 0 0-45.83 45.83v583.47A45.88 45.88 0 0 0 292 869.37h467.47a45.88 45.88 0 0 0 45.83-45.83V240.07a45.88 45.88 0 0 0-45.83-45.83z" p-id="2453" fill="#1296db"></path><path d="M665.84 295.72a27.85 27.85 0 0 0-16.87 50c-12.54 56.55-63 98.91-123.24 98.91a126.44 126.44 0 0 1-123.25-98.91 27.83 27.83 0 1 0-31.29 1.74 9.94 9.94 0 0 0 2.35 1.53c12.17 73 75.77 128.87 152.19 128.87S665.74 422 677.91 349a9.26 9.26 0 0 0 2.49-1.63 27.87 27.87 0 0 0-14.56-51.64z" p-id="2454" fill="#1296db"></path></svg>