<?xml version="1.0" standalone="no"?><!DOCTYPE svg PUBLIC "-//W3C//DTD SVG 1.1//EN" "http://www.w3.org/Graphics/SVG/1.1/DTD/svg11.dtd"><svg t="1605006858657" class="icon" viewBox="0 0 1024 1024" version="1.1" xmlns="http://www.w3.org/2000/svg" p-id="5796" width="128" height="128" xmlns:xlink="http://www.w3.org/1999/xlink"><defs><style type="text/css"></style></defs><path d="M770.1 843H253.9c-9.1 0-16.5-7.4-16.5-16.5V232.2c0-9.1 7.4-16.5 16.5-16.5h516.2c9.1 0 16.5 7.4 16.5 16.5v594.3c0 9.1-7.4 16.5-16.5 16.5z m-499.8-32.9h483.3V248.7H270.3v561.4z" fill="#1296db" p-id="5797"></path><path d="M685.9 369.8H343.7c-9.1 0-16.5-7.4-16.5-16.5s7.4-16.5 16.5-16.5H686c9.1 0 16.5 7.4 16.5 16.5-0.1 9.1-7.5 16.5-16.6 16.5zM685.9 473H343.7c-9.1 0-16.5-7.4-16.5-16.5s7.4-16.5 16.5-16.5H686c9.1 0 16.5 7.4 16.5 16.5-0.1 9.1-7.5 16.5-16.6 16.5zM685.9 576.2H343.7c-9.1 0-16.5-7.4-16.5-16.5s7.4-16.5 16.5-16.5H686c9.1 0 16.5 7.4 16.5 16.5-0.1 9.1-7.5 16.5-16.6 16.5zM463 679.3H343.7c-9.1 0-16.5-7.4-16.5-16.5s7.4-16.5 16.5-16.5H463c9.1 0 16.5 7.4 16.5 16.5 0 9.2-7.4 16.5-16.5 16.5z" fill="#1296db" p-id="5798"></path><path d="M588.1 269.8H435.8c-1.3 0-2.4-1.1-2.4-2.4v-67.5c0-1.3 1.1-2.4 2.4-2.4h152.3c1.3 0 2.4 1.1 2.4 2.4v67.5c0.1 1.3-1 2.4-2.4 2.4z" fill="#1296db" p-id="5799"></path><path d="M554.4 286.2h-84.8c-29 0-52.6-23.6-52.6-52.6s23.6-52.6 52.6-52.6h84.8c29 0 52.6 23.6 52.6 52.6s-23.6 52.6-52.6 52.6z m-84.8-72.3c-10.9 0-19.7 8.8-19.7 19.7 0 10.9 8.8 19.7 19.7 19.7h84.8c10.9 0 19.7-8.8 19.7-19.7 0-10.9-8.8-19.7-19.7-19.7h-84.8zM584.6 760.7c-4.2 0-8.4-1.6-11.6-4.8L528.1 711c-6.4-6.4-6.4-16.8 0-23.3 6.4-6.4 16.9-6.4 23.3 0l33.3 33.3 89.7-89.7c6.4-6.4 16.8-6.4 23.3 0 6.4 6.4 6.4 16.8 0 23.3L596.3 755.9c-3.2 3.2-7.5 4.8-11.7 4.8z" fill="#1296db" p-id="5800"></path></svg>