<?xml version="1.0" standalone="no"?><!DOCTYPE svg PUBLIC "-//W3C//DTD SVG 1.1//EN" "http://www.w3.org/Graphics/SVG/1.1/DTD/svg11.dtd"><svg t="1604974707868" class="icon" viewBox="0 0 1024 1024" version="1.1" xmlns="http://www.w3.org/2000/svg" p-id="3784" xmlns:xlink="http://www.w3.org/1999/xlink" width="64" height="64"><defs><style type="text/css"></style></defs><path d="M223.99661 447.659623l63.663972 0c17.661242 0 31.978319-14.317077 31.978319-31.978319s-14.317077-31.978319-31.978319-31.978319l-63.663972 0c-17.661242 0-31.978319 14.317077-31.978319 31.978319S206.335369 447.659623 223.99661 447.659623z" p-id="3785" fill="#1296db"></path><path d="M223.99661 639.528512 350.466 639.528512c17.661242 0 31.978319-14.317077 31.978319-31.978319s-14.317077-31.978319-31.978319-31.978319L223.99661 575.571874c-17.661242 0-31.978319 14.317077-31.978319 31.978319S206.335369 639.528512 223.99661 639.528512z" p-id="3786" fill="#1296db"></path><path d="M556.434002 767.441786 220.178655 767.441786c-17.661242 0-31.978319 14.317077-31.978319 31.978319s14.317077 31.978319 31.978319 31.978319l336.254324 0c17.661242 0 31.978319-14.317077 31.978319-31.978319S574.09422 767.441786 556.434002 767.441786z" p-id="3787" fill="#1296db"></path><path d="M96.113011 415.681304m-31.978319 0a31.25 31.25 0 1 0 63.956637 0 31.25 31.25 0 1 0-63.956637 0Z" p-id="3788" fill="#1296db"></path><path d="M96.113011 607.551216m-31.978319 0a31.25 31.25 0 1 0 63.956637 0 31.25 31.25 0 1 0-63.956637 0Z" p-id="3789" fill="#1296db"></path><path d="M96.113011 799.421128m-31.978319 0a31.25 31.25 0 1 0 63.956637 0 31.25 31.25 0 1 0-63.956637 0Z" p-id="3790" fill="#1296db"></path><path d="M948.886255 451.957509l-2.270716-27.26804-26.065655-8.326643c-40.054251-12.795421-45.958728-22.936385-46.735417-24.839735-0.75827-1.857301-3.578502-12.942777 15.423271-48.869011l13.002129-24.581861-18.063401-21.143553c-9.4093-11.013845-19.770276-21.36254-30.794353-30.759561l-21.116947-17.998933-24.539906 12.94994c-25.099654 13.245675-38.262442 16.025998-44.88528 16.025998-3.15997 0-5.134951-0.212848-8.966209-4.575202-4.576225-5.211698-11.770068-16.851806-20.047592-42.708707l-8.338922-26.046213-27.254737-2.264577c-7.725962-0.641613-15.471366-0.967024-23.020296-0.967024s-15.293311 0.325411-23.020296 0.967024l-27.254737 2.264577-8.338922 26.046213c-8.277524 25.852808-15.471366 37.493939-20.048615 42.705638-3.833305 4.365424-5.806239 4.577249-8.965186 4.577249-6.622838 0-19.785625-2.780323-44.88528-16.025998l-24.539906-12.94994-21.116947 17.998933c-11.024078 9.395998-21.385053 19.745716-30.794353 30.759561l-18.063401 21.143553 13.002129 24.581861c19.001773 35.925211 16.181541 47.010687 15.423271 48.869011-0.776689 1.90335-6.681166 12.044314-46.735417 24.839735l-26.065655 8.326643-2.270716 27.26804c-0.642636 7.721869-0.969071 15.461133-0.969071 23.004947 0 7.543813 0.326435 15.283078 0.969071 23.004947l2.270716 27.26804 26.065655 8.326643c40.054251 12.795421 45.958728 22.937408 46.735417 24.839735 0.75827 1.857301 3.577478 12.9438-15.423271 48.869011l-13.002129 24.581861 18.063401 21.143553c9.4093 11.013845 19.770276 21.36254 30.794353 30.759561l21.116947 17.998933 24.539906-12.94994c25.099654-13.245675 38.262442-16.025998 44.88528-16.025998 3.15997 0 5.134951 0.212848 8.966209 4.575202 4.576225 5.211698 11.770068 16.851806 20.047592 42.708707l8.338922 26.046213 27.254737 2.264577c7.725962 0.641613 15.471366 0.967024 23.020296 0.967024s15.294334-0.325411 23.020296-0.967024l27.254737-2.264577 8.338922-26.046213c8.277524-25.852808 15.471366-37.493939 20.048615-42.705638 3.833305-4.365424 5.806239-4.577249 8.965186-4.577249 6.622838 0 19.785625 2.780323 44.88528 16.025998l24.539906 12.94994 21.116947-17.998933c11.024078-9.395998 21.385053-19.745716 30.794353-30.759561l18.063401-21.143553-13.002129-24.581861c-19.001773-35.925211-16.181541-47.01171-15.423271-48.869011 0.776689-1.90335 6.681166-12.044314 46.735417-24.839735l26.065655-8.326643 2.270716-27.26804c0.642636-7.721869 0.969071-15.461133 0.969071-23.004947C949.855326 467.418642 949.528891 459.679377 948.886255 451.957509zM908.095223 494.571049c-79.790254 25.488511-93.872994 58.416458-55.039547 131.837654-8.037047 9.407254-16.807804 18.167778-26.225291 26.195615-25.873274-13.653975-46.719044-20.757766-63.989383-20.757766-31.795147 0-51.462069 24.088628-67.99665 75.734892-6.473435 0.538259-13.017478 0.826831-19.630083 0.826831-6.612605 0-13.156648-0.288572-19.630083-0.826831-16.536628-51.65138-36.19741-75.734892-67.997674-75.734892-17.268292 0-38.121226 7.105838-63.989383 20.757766-9.41851-8.027837-18.188244-16.788361-26.225291-26.195615 38.83447-73.421196 24.750707-106.349143-55.039547-131.837654-0.538259-6.466272-0.827855-13.003152-0.827855-19.608593 0-6.605442 0.289596-13.142322 0.827855-19.608593 79.790254-25.488511 93.874017-58.416458 55.039547-131.837654 8.037047-9.407254 16.807804-18.167778 26.225291-26.195615 25.873274 13.653975 46.719044 20.757766 63.989383 20.757766 31.795147 0 51.462069-24.088628 67.997674-75.734892 6.473435-0.538259 13.017478-0.826831 19.630083-0.826831 6.612605 0 13.156648 0.288572 19.630083 0.826831 16.536628 51.65138 36.19741 75.734892 67.99665 75.734892 17.268292 0 38.121226-7.105838 63.989383-20.757766 9.41851 8.027837 18.188244 16.788361 26.225291 26.195615-38.83447 73.421196-24.750707 106.349143 55.039547 131.837654 0.538259 6.466272 0.827855 13.003152 0.827855 19.608593C908.923078 481.567897 908.633482 488.104777 908.095223 494.571049z" p-id="3791" fill="#1296db"></path><path d="M675.213245 391.029858c-46.307675 0-83.981716 37.652552-83.981716 83.932598 0 46.281069 37.674041 83.932598 83.981716 83.932598 46.307675 0 83.981716-37.652552 83.981716-83.932598C759.194962 428.681386 721.520921 391.029858 675.213245 391.029858zM675.213245 517.962805c-23.775496 0-43.049468-19.252483-43.049468-43.00035 0-23.74889 19.273972-43.00035 43.049468-43.00035s43.049468 19.252483 43.049468 43.00035C718.262714 498.711346 698.988742 517.962805 675.213245 517.962805z" p-id="3792" fill="#1296db"></path></svg>