<?xml version="1.0" standalone="no"?><!DOCTYPE svg PUBLIC "-//W3C//DTD SVG 1.1//EN" "http://www.w3.org/Graphics/SVG/1.1/DTD/svg11.dtd"><svg t="1604972856045" class="icon" viewBox="0 0 1024 1024" version="1.1" xmlns="http://www.w3.org/2000/svg" p-id="2264" xmlns:xlink="http://www.w3.org/1999/xlink" width="200" height="200"><defs><style type="text/css"></style></defs><path d="M610.2 904.94H251.3a64.25 64.25 0 0 1-64.17-64.17V222.48a64.25 64.25 0 0 1 64.17-64.17h513.2a64.25 64.25 0 0 1 64.17 64.17v272.18a14.18 14.18 0 0 1-28.35 0V222.48a35.87 35.87 0 0 0-35.82-35.83H251.3a35.87 35.87 0 0 0-35.82 35.83v618.29a35.86 35.86 0 0 0 35.82 35.82h358.9a14.18 14.18 0 1 1 0 28.35z" p-id="2265" fill="#1296db"></path><path d="M644.84 295.72a27.85 27.85 0 0 0-16.87 50c-12.54 56.55-63 98.91-123.24 98.91a126.44 126.44 0 0 1-123.25-98.91 27.83 27.83 0 1 0-31.29 1.74 9.94 9.94 0 0 0 2.35 1.53c12.17 73 75.77 128.87 152.19 128.87S644.74 422 656.91 349a9.26 9.26 0 0 0 2.49-1.63 27.87 27.87 0 0 0-14.56-51.64z" p-id="2266" fill="#1296db"></path><path d="M648.05 705.63m14 0l142.7 0q14 0 14 14l0 2q0 14-14 14l-142.7 0q-14 0-14-14l0-2q0-14 14-14Z" p-id="2267" fill="#1296db"></path><path d="M718.4 798.8m0-14l0-128.34q0-14 14-14l2 0q14 0 14 14l0 128.34q0 14-14 14l-2 0q-14 0-14-14Z" p-id="2268" fill="#1296db"></path><path d="M735.2 876.68c-86.72 0-157.27-70.55-157.27-157.27s70.55-157.27 157.27-157.27 157.27 70.55 157.27 157.27-70.55 157.27-157.27 157.27z m0-286.19a128.92 128.92 0 0 0 0 257.84c71.09 0 128.93-57.83 128.93-128.92S806.29 590.49 735.2 590.49z" p-id="2269" fill="#1296db"></path></svg>