<?xml version="1.0" standalone="no"?><!DOCTYPE svg PUBLIC "-//W3C//DTD SVG 1.1//EN" "http://www.w3.org/Graphics/SVG/1.1/DTD/svg11.dtd"><svg class="icon" width="250px" height="250.00px" viewBox="0 0 1024 1024" version="1.1" xmlns="http://www.w3.org/2000/svg"><path d="M234.057143 753.371429c14.628571 0 29.257143-7.314286 43.885714-14.628571l7.314286 0-146.285714-146.285714 0 7.314286C131.657143 614.4 124.342857 629.028571 124.342857 643.657143L73.142857 804.571429 234.057143 753.371429 234.057143 753.371429 234.057143 753.371429 234.057143 753.371429zM746.057143 168.228571 702.171429 117.028571c-29.257143-29.257143-65.828571-29.257143-95.085714 0L563.2 168.228571l138.971429 138.971429 43.885714-43.885714C775.314286 234.057143 775.314286 190.171429 746.057143 168.228571L746.057143 168.228571 746.057143 168.228571 746.057143 168.228571zM658.285714 351.085714 519.314286 212.114286 190.171429 541.257143l138.971429 138.971429L658.285714 351.085714 658.285714 351.085714 658.285714 351.085714 658.285714 351.085714z" fill="#8a8a8a" /><path d="M0 877.714286l1024 0 0 73.142857L0 950.857143 0 877.714286 0 877.714286z" fill="#8a8a8a" /></svg>