<?xml version="1.0" standalone="no"?><!DOCTYPE svg PUBLIC "-//W3C//DTD SVG 1.1//EN" "http://www.w3.org/Graphics/SVG/1.1/DTD/svg11.dtd"><svg class="icon" width="250px" height="250.00px" viewBox="0 0 1024 1024" version="1.1" xmlns="http://www.w3.org/2000/svg"><path d="M514 912c-219.9 0-398.8-178.9-398.8-398.9 0-219.9 178.9-398.8 398.8-398.8s398.8 178.9 398.8 398.8c0 220-178.9 398.9-398.8 398.9z m0-701.5c-166.9 0-302.7 135.8-302.7 302.7S347.1 815.9 514 815.9c166.9 0 302.7-135.8 302.7-302.7S680.9 210.5 514 210.5z" fill="#1296db" /><path d="M239.4 486.2l59.7-38.8c57.1-37.1 134.1-20.7 169.7 37.3 25.8 41.9 36.4 83.5 36.4 83.5s137.1-308.8 327.7-366.7c0 0-59.5 135.9 27.3 234 0 0-197.8 55.1-344.1 286.2-4.9 7.8-16.3 7.6-20.8-0.4-29.1-50.5-120.7-192.4-255.9-235.1z" fill="#1296db" /></svg>