<?xml version="1.0" standalone="no"?><!DOCTYPE svg PUBLIC "-//W3C//DTD SVG 1.1//EN" "http://www.w3.org/Graphics/SVG/1.1/DTD/svg11.dtd"><svg class="icon" width="128px" height="128.00px" viewBox="0 0 1024 1024" version="1.1" xmlns="http://www.w3.org/2000/svg"><path d="M864 608c-12.8 0-25.6 12.8-25.6 25.6l0 268.8c0 38.4-32 70.4-70.4 70.4L198.4 972.8c-38.4 0-70.4-32-70.4-70.4L128 121.6c0-38.4 32-70.4 70.4-70.4L768 51.2c38.4 0 70.4 32 70.4 70.4l0 32c0 12.8 12.8 25.6 25.6 25.6 12.8 0 25.6-12.8 25.6-25.6L889.6 121.6C889.6 57.6 832 0 768 0L198.4 0C128 0 76.8 57.6 76.8 121.6l0 780.8C76.8 966.4 128 1024 198.4 1024L768 1024c70.4 0 121.6-57.6 121.6-121.6L889.6 633.6C889.6 620.8 876.8 608 864 608z" fill="#1296db" /><path d="M576 249.6c0-6.4-6.4-12.8-12.8-12.8l-384 0c-6.4 0-12.8 6.4-12.8 12.8S172.8 256 179.2 256l384 0C569.6 256 576 256 576 249.6z" fill="#1296db" /><path d="M454.4 428.8c0-6.4-6.4-12.8-12.8-12.8L179.2 416c-6.4 0-12.8 6.4-12.8 12.8s6.4 12.8 12.8 12.8l262.4 0C448 435.2 454.4 435.2 454.4 428.8z" fill="#1296db" /><path d="M179.2 595.2c-6.4 0-12.8 6.4-12.8 12.8s6.4 12.8 12.8 12.8l160 0c6.4 0 12.8-6.4 12.8-12.8S339.2 595.2 332.8 595.2L179.2 595.2z" fill="#1296db" /><path d="M979.2 326.4l-64-64c-25.6-25.6-76.8-25.6-102.4 0l-384 384 172.8 172.8 384-384c12.8-12.8 19.2-32 19.2-51.2C1004.8 358.4 992 339.2 979.2 326.4zM947.2 396.8l-352 352-102.4-102.4 352-352c6.4-6.4 25.6-6.4 32 0l64 64c6.4 6.4 6.4 12.8 6.4 19.2C953.6 384 953.6 390.4 947.2 396.8z" fill="#1296db" /><path d="M390.4 876.8 576 832l-166.4-166.4-44.8 185.6C364.8 864 377.6 876.8 390.4 876.8z" fill="#1296db" /><path d="M844.8 332.8 544 640c-6.4 6.4-6.4 12.8 0 19.2 0 0 6.4 6.4 6.4 6.4 0 0 6.4 0 6.4-6.4l307.2-307.2c6.4-6.4 6.4-12.8 0-19.2S851.2 332.8 844.8 332.8z" fill="#1296db" /></svg>