<?xml version="1.0" standalone="no"?><!DOCTYPE svg PUBLIC "-//W3C//DTD SVG 1.1//EN" "http://www.w3.org/Graphics/SVG/1.1/DTD/svg11.dtd"><svg class="icon" width="128px" height="128.00px" viewBox="0 0 1024 1024" version="1.1" xmlns="http://www.w3.org/2000/svg"><path d="M737.3 879c-58.3 0-105.7-47.4-105.7-105.7 0-4.1 0.2-8.2 0.7-12.2h-183c-2.4 1.2-5 1.9-7.9 1.9H383c-6 52.7-50.8 93.8-105.1 93.8-54.2 0-99.1-41.1-105.2-93.8H115c-4.6 0-9.1-1.8-12.4-5.1-3.3-3.3-5.1-7.7-5.1-12.4V472.7c0-3.3 0.9-6.4 2.5-9.1l93.8-153.2c22.2-35.1 54.8-52.7 97.3-52.7h133.3c3-64.4 56.3-115.9 121.4-115.9h259.8c67 0 121.5 54.5 121.5 121.5v402.1c0 49.1-37.2 89.8-85 95.1 0.5 4.2 0.7 8.5 0.7 12.8 0.2 58.3-47.2 105.7-105.5 105.7z m0-176.5c-38.9 0-70.7 31.8-70.7 70.7 0 38.9 31.8 70.7 70.7 70.7 38.9 0 70.7-31.8 70.7-70.7-0.1-39-31.8-70.7-70.7-70.7z m-459.4-22.4c-39 0-70.7 31.8-70.7 70.7 0 38.9 31.8 70.7 70.7 70.7 38.9 0 70.7-31.8 70.7-70.7 0.1-39-31.7-70.7-70.7-70.7z m0-35.1c50.4 0 92.8 35.5 103.3 82.8 0.8-0.1 1.5-0.2 2.4-0.2h40.3l0.2-435h-133c-30.5 0-51.9 11.5-67.5 36.2l-91.1 148.8v250.1h42.2c10.6-47.2 52.9-82.7 103.2-82.7z m181.4 80.9h183.4c17.3-34.6 53.3-58.4 94.6-58.4 41.4 0 77.2 23.8 94.6 58.4 33.2-0.1 60.4-27.2 60.4-60.5V263.3c0-47.7-38.8-86.4-86.4-86.4H545.8c-47.6 0-86.4 38.8-86.4 86.4l-0.1 462.6zM316.5 494.2H204.6c-4.6 0-9.1-1.8-12.4-5.1-3.3-3.3-5.1-7.7-5.1-12.4 0-9.7 7.8-17.5 17.5-17.5H299v-94.4c0-9.7 7.8-17.5 17.5-17.5s17.5 7.8 17.5 17.5v111.9c0 9.7-7.8 17.5-17.5 17.5z m0 0" fill="#1296db" /></svg>