<?xml version="1.0" standalone="no"?><!DOCTYPE svg PUBLIC "-//W3C//DTD SVG 1.1//EN" "http://www.w3.org/Graphics/SVG/1.1/DTD/svg11.dtd"><svg class="icon" width="128px" height="128.00px" viewBox="0 0 1024 1024" version="1.1" xmlns="http://www.w3.org/2000/svg"><path d="M26.4 733.3V353.7h912.7v97.6h21.2V282c0-93.5-47.3-151.6-123.4-151.6h-680c-83.6 0-151.6 68-151.6 151.6v451.3C5.2 817 73.2 885 156.9 885h488.9v-21.2H156.9c-72 0-130.5-58.5-130.5-130.5z m130.5-581.7h680c94.9 0 102.3 99.9 102.3 130.5v50.5H26.4V282c0-71.9 58.5-130.4 130.5-130.4z" fill="#1296db" /><path d="M255.6 250.3h231.1v21.2H255.6zM143.9 250.3h58.8v21.2h-58.8zM865.2 588.4c-87 0-157.8 70.8-157.8 157.8S778.2 904 865.2 904 1023 833.2 1023 746.2s-70.8-157.8-157.8-157.8z m0 294.4c-75.3 0-136.6-61.3-136.6-136.6s61.3-136.6 136.6-136.6 136.6 61.3 136.6 136.6-61.2 136.6-136.6 136.6z" fill="#1296db" /><path d="M889.7 777.4h-63.5v14.1h77.6V676.9h-14.1zM584.5 467.6c35.2 0 36 4 30 13.6l-75.9 125.2-76.3-118.2c-10.7-16.7-7.1-21.1 31.2-21.1v-12.3H390.1v12.3c24.1 0 35.2 8.8 47.8 28.1L511 608.6c4.7 7 7.9 21.5 7.9 33.4v7.9h-63.2v13.2h63.2V715c0 17.1-6.3 20.6-49 23.7V751h123.7v-12.3c-44.6-4-47.8-6.6-47.8-23.7v-51.9h55.7V650h-55.7v-30.3L626 487.3c9.1-15.4 12.2-19.8 40.3-19.8v-12.7h-81.8v12.8z" fill="#1296db" /></svg>